<svg width="35" height="35" viewBox="0 0 35 35" fill="none" xmlns="http://www.w3.org/2000/svg">
<g clip-path="url(#clip0_1_127)">
<path fill-rule="evenodd" clip-rule="evenodd" d="M12.5934 2.34284C12.7167 2.41665 12.8242 2.51402 12.9098 2.62938C12.9954 2.74475 13.0575 2.87585 13.0924 3.01521C13.1274 3.15456 13.1345 3.29943 13.1135 3.44155C13.0924 3.58366 13.0435 3.72023 12.9697 3.84346L7.40031 13.125H27.5997L22.0281 3.84346C21.879 3.59457 21.8349 3.29665 21.9055 3.01523C21.976 2.73381 22.1555 2.49194 22.4044 2.34284C22.6533 2.19374 22.9512 2.14961 23.2326 2.22017C23.514 2.29073 23.7559 2.4702 23.905 2.71909L30.1503 13.125H33.9062C34.1963 13.125 34.4745 13.2403 34.6796 13.4454C34.8848 13.6505 35 13.9287 35 14.2188V16.4063C35 16.6964 34.8848 16.9746 34.6796 17.1797C34.4745 17.3848 34.1963 17.5 33.9062 17.5H1.09375C0.803669 17.5 0.52547 17.3848 0.320352 17.1797C0.115234 16.9746 0 16.6964 0 16.4063V14.2188C0 13.9287 0.115234 13.6505 0.320352 13.4454C0.52547 13.2403 0.803669 13.125 1.09375 13.125H4.84969L11.0906 2.71909C11.1644 2.59583 11.2618 2.48832 11.3772 2.4027C11.4925 2.31709 11.6236 2.25503 11.763 2.22009C11.9023 2.18515 12.0472 2.17801 12.1893 2.19907C12.3314 2.22013 12.4702 2.26898 12.5934 2.34284Z" fill="#70C216"/>
<path d="M5.3988 33.7444L2.06287 19.6875H32.9372L29.6013 33.7444C29.5149 34.1022 29.3107 34.4206 29.0214 34.6484C28.7322 34.8761 28.3748 35 28.0066 35H6.99349C6.62498 35.0005 6.26704 34.8768 5.97735 34.6491C5.68766 34.4213 5.48528 34.1026 5.3988 33.7444Z" fill="#70C216"/>
</g>
<defs>
<clipPath id="clip0_1_127">
<rect width="35" height="35" fill="white"/>
</clipPath>
</defs>
</svg>
