<svg width="35" height="35" viewBox="0 0 35 35" fill="none" xmlns="http://www.w3.org/2000/svg">
<path d="M34.4167 32.375V9.625H27.4167V32.375H25.6667V14.2917H18.6667V32.375H16.9167V18.9583H9.91667V32.375H8.16667V24.2083H1.16667V32.375H0.583333C0.261333 32.375 0 32.6358 0 32.9583C0 33.2809 0.261333 33.5417 0.583333 33.5417H1.16667H8.16667H9.91667H16.9167H18.6667H25.6667H27.4167H34.4167C34.7387 33.5417 35 33.2809 35 32.9583C35 32.6358 34.7387 32.375 34.4167 32.375ZM2.33333 32.375V25.375H7V32.375H2.33333ZM11.0833 32.375V20.125H15.75V32.375H11.0833ZM19.8333 32.375V15.4583H24.5V32.375H19.8333ZM28.5833 32.375V10.7917H33.25V32.375H28.5833Z" fill="#70C216"/>
<path d="M4.68415 16.2342C4.78274 16.2342 4.88365 16.2091 4.97524 16.156L26.1322 3.94101L24.808 6.85185C24.6744 7.14526 24.8039 7.49118 25.0973 7.62418C25.1755 7.66035 25.2577 7.67668 25.3388 7.67668C25.5605 7.67668 25.7722 7.54951 25.8702 7.33485L27.9481 2.76735C27.9545 2.75276 27.9533 2.73701 27.9586 2.72185C27.9697 2.69093 27.9784 2.66118 27.9842 2.62851C27.9872 2.61218 27.9965 2.59876 27.9977 2.58185C27.9982 2.57485 27.9953 2.56901 27.9959 2.56201C27.9971 2.53985 27.9947 2.51943 27.9936 2.49726C27.9918 2.46518 27.9866 2.43485 27.9796 2.40276C27.9749 2.3806 27.9737 2.35785 27.9662 2.33626C27.9592 2.31526 27.9469 2.29776 27.9376 2.27735C27.93 2.26393 27.93 2.24818 27.9218 2.23418C27.9137 2.22018 27.8997 2.21201 27.8903 2.1986C27.8781 2.18051 27.8687 2.16126 27.8542 2.14493C27.839 2.12743 27.8197 2.11518 27.8022 2.09943C27.7783 2.07785 27.7544 2.05801 27.7276 2.04051C27.7095 2.02885 27.6932 2.01601 27.6733 2.0061C27.6669 2.00318 27.6634 1.99735 27.657 1.99443C27.6424 1.98801 27.6267 1.98918 27.6121 1.98393C27.58 1.97226 27.5485 1.9641 27.5152 1.95826C27.5001 1.95535 27.4878 1.9466 27.4721 1.94543L22.4776 1.46126C22.1538 1.4286 21.8715 1.66543 21.8406 1.9851C21.8091 2.30593 22.0442 2.59118 22.3644 2.6221L25.5471 2.93068L4.3919 15.1457C4.11249 15.3067 4.0174 15.6637 4.1784 15.9425C4.28632 16.1298 4.48232 16.2342 4.68415 16.2342Z" fill="#70C216"/>
</svg>
