<svg width="35" height="35" viewBox="0 0 35 35" fill="none" xmlns="http://www.w3.org/2000/svg">
<path d="M17.5 15.3125C16.0578 15.3125 14.6481 14.8848 13.4489 14.0836C12.2498 13.2824 11.3153 12.1436 10.7634 10.8112C10.2115 9.47882 10.0671 8.01271 10.3484 6.59826C10.6298 5.18382 11.3242 3.88457 12.344 2.86481C13.3638 1.84505 14.663 1.15059 16.0774 0.869237C17.4919 0.587886 18.958 0.732285 20.2904 1.28417C21.6228 1.83606 22.7616 2.77065 23.5628 3.96976C24.364 5.16887 24.7916 6.57864 24.7916 8.0208C24.7916 9.95467 24.0234 11.8093 22.656 13.1768C21.2885 14.5442 19.4339 15.3125 17.5 15.3125ZM17.5 3.6458C16.6347 3.6458 15.7888 3.90238 15.0694 4.38312C14.3499 4.86385 13.7891 5.54713 13.458 6.34656C13.1269 7.14598 13.0402 8.02565 13.209 8.87432C13.3779 9.72298 13.7945 10.5025 14.4064 11.1144C15.0182 11.7262 15.7978 12.1429 16.6465 12.3117C17.4951 12.4805 18.3748 12.3939 19.1742 12.0628C19.9736 11.7316 20.6569 11.1709 21.1377 10.4514C21.6184 9.73195 21.875 8.88609 21.875 8.0208C21.875 6.86047 21.414 5.74767 20.5936 4.9272C19.7731 4.10673 18.6603 3.6458 17.5 3.6458Z" fill="#70C216"/>
<path d="M30.625 34.2709H4.37502C3.98825 34.2709 3.61731 34.1172 3.34382 33.8437C3.07033 33.5702 2.91669 33.1993 2.91669 32.8125V28.4375C2.91669 25.3433 4.14585 22.3759 6.33378 20.188C8.5217 18 11.4892 16.7709 14.5834 16.7709H20.4167C23.5109 16.7709 26.4783 18 28.6663 20.188C30.8542 22.3759 32.0834 25.3433 32.0834 28.4375V32.8125C32.0834 33.1993 31.9297 33.5702 31.6562 33.8437C31.3827 34.1172 31.0118 34.2709 30.625 34.2709ZM5.83335 31.3542H29.1667V28.4375C29.1667 26.1169 28.2448 23.8913 26.6039 22.2504C24.9629 20.6094 22.7373 19.6875 20.4167 19.6875H14.5834C12.2627 19.6875 10.0371 20.6094 8.39617 22.2504C6.75523 23.8913 5.83335 26.1169 5.83335 28.4375V31.3542Z" fill="#70C216"/>
</svg>
